<svg width="24" height="25" viewBox="0 0 24 25" fill="none" xmlns="http://www.w3.org/2000/svg">
<g id="Icon/team">
<path id="Vector" d="M8.625 5.01178C7.18359 5.01178 6 6.19537 6 7.63678C6 9.07819 7.18359 10.2618 8.625 10.2618C10.0664 10.2618 11.25 9.07819 11.25 7.63678C11.25 6.19537 10.0664 5.01178 8.625 5.01178ZM15.375 5.01178C13.9336 5.01178 12.75 6.19537 12.75 7.63678C12.75 9.07819 13.9336 10.2618 15.375 10.2618C16.8164 10.2618 18 9.07819 18 7.63678C18 6.19537 16.8164 5.01178 15.375 5.01178ZM8.625 6.51178C9.25488 6.51178 9.75 7.0069 9.75 7.63678C9.75 8.26666 9.25488 8.76178 8.625 8.76178C7.99512 8.76178 7.5 8.26666 7.5 7.63678C7.5 7.0069 7.99512 6.51178 8.625 6.51178ZM15.375 6.51178C16.0049 6.51178 16.5 7.0069 16.5 7.63678C16.5 8.26666 16.0049 8.76178 15.375 8.76178C14.7451 8.76178 14.25 8.26666 14.25 7.63678C14.25 7.0069 14.7451 6.51178 15.375 6.51178ZM5.25 9.51178C3.60059 9.51178 2.25 10.8624 2.25 12.5118C2.25 13.3467 2.60742 14.0997 3.16406 14.6446C2.16504 15.3214 1.5 16.4727 1.5 17.7618H3C3 16.5108 3.99902 15.5118 5.25 15.5118C6.50098 15.5118 7.5 16.5108 7.5 17.7618H9C9 16.4727 8.33496 15.3214 7.33594 14.6446C7.89258 14.0997 8.25 13.3467 8.25 12.5118C8.25 10.8624 6.89941 9.51178 5.25 9.51178ZM9 17.7618C8.53125 18.3887 8.25 19.1768 8.25 20.0118H9.75C9.75 18.7608 10.749 17.7618 12 17.7618C13.251 17.7618 14.25 18.7608 14.25 20.0118H15.75C15.75 19.1768 15.4688 18.3887 15 17.7618C14.7451 17.4219 14.4375 17.1319 14.0859 16.8946C14.6426 16.3497 15 15.5967 15 14.7618C15 13.1124 13.6494 11.7618 12 11.7618C10.3506 11.7618 9 13.1124 9 14.7618C9 15.5967 9.35742 16.3497 9.91406 16.8946C9.5625 17.1319 9.25488 17.4219 9 17.7618ZM15 17.7618H16.5C16.5 16.5108 17.499 15.5118 18.75 15.5118C20.001 15.5118 21 16.5108 21 17.7618H22.5C22.5 16.4727 21.835 15.3214 20.8359 14.6446C21.3926 14.0997 21.75 13.3467 21.75 12.5118C21.75 10.8624 20.3994 9.51178 18.75 9.51178C17.1006 9.51178 15.75 10.8624 15.75 12.5118C15.75 13.3467 16.1074 14.0997 16.6641 14.6446C15.665 15.3214 15 16.4727 15 17.7618ZM5.25 11.0118C6.08789 11.0118 6.75 11.6739 6.75 12.5118C6.75 13.3497 6.08789 14.0118 5.25 14.0118C4.41211 14.0118 3.75 13.3497 3.75 12.5118C3.75 11.6739 4.41211 11.0118 5.25 11.0118ZM18.75 11.0118C19.5879 11.0118 20.25 11.6739 20.25 12.5118C20.25 13.3497 19.5879 14.0118 18.75 14.0118C17.9121 14.0118 17.25 13.3497 17.25 12.5118C17.25 11.6739 17.9121 11.0118 18.75 11.0118ZM12 13.2618C12.8379 13.2618 13.5 13.9239 13.5 14.7618C13.5 15.5997 12.8379 16.2618 12 16.2618C11.1621 16.2618 10.5 15.5997 10.5 14.7618C10.5 13.9239 11.1621 13.2618 12 13.2618Z" fill="#1A3835"/>
</g>
</svg>
