<svg width="24" height="25" viewBox="0 0 24 25" fill="none" xmlns="http://www.w3.org/2000/svg">
<g id="coins-solid">
<path id="Vector" d="M15.75 3.51178C14.4053 3.51178 13.1865 3.76373 12.2344 4.23834C11.2822 4.71295 10.5 5.48639 10.5 6.51178V9.51178C10.5 9.60846 10.5322 9.70221 10.5469 9.79303C9.84961 9.61139 9.07617 9.51178 8.25 9.51178C6.90527 9.51178 5.68652 9.76373 4.73438 10.2383C3.78223 10.713 3 11.4864 3 12.5118V18.5118C3 19.5372 3.78223 20.3106 4.73438 20.7852C5.68652 21.2598 6.90527 21.5118 8.25 21.5118C9.59473 21.5118 10.8135 21.2598 11.7656 20.7852C12.7178 20.3106 13.5 19.5372 13.5 18.5118V18.2071C14.1885 18.3887 14.9414 18.5118 15.75 18.5118C17.0947 18.5118 18.3135 18.2598 19.2656 17.7852C20.2178 17.3106 21 16.5372 21 15.5118V6.51178C21 5.48639 20.2178 4.71295 19.2656 4.23834C18.3135 3.76373 17.0947 3.51178 15.75 3.51178ZM15.75 5.01178C16.8926 5.01178 17.9092 5.25787 18.5859 5.59772C19.2627 5.93756 19.5 6.29498 19.5 6.51178C19.5 6.72858 19.2627 7.086 18.5859 7.42584C17.9092 7.76569 16.8926 8.01178 15.75 8.01178C14.6074 8.01178 13.5908 7.76569 12.9141 7.42584C12.2373 7.086 12 6.72858 12 6.51178C12 6.29498 12.2373 5.93756 12.9141 5.59772C13.5908 5.25787 14.6074 5.01178 15.75 5.01178ZM12 8.64459C12.0791 8.68854 12.1523 8.7442 12.2344 8.78522C13.1865 9.25983 14.4053 9.51178 15.75 9.51178C17.0947 9.51178 18.3135 9.25983 19.2656 8.78522C19.3477 8.7442 19.4209 8.68854 19.5 8.64459V9.51178C19.5 9.72858 19.2627 10.086 18.5859 10.4258C17.9092 10.7657 16.8926 11.0118 15.75 11.0118C14.6074 11.0118 13.5908 10.7657 12.9141 10.4258C12.2373 10.086 12 9.72858 12 9.51178V8.64459ZM8.25 11.0118C9.39258 11.0118 10.4092 11.2579 11.0859 11.5977C11.7627 11.9376 12 12.295 12 12.5118C12 12.7286 11.7627 13.086 11.0859 13.4258C10.4092 13.7657 9.39258 14.0118 8.25 14.0118C7.10742 14.0118 6.09082 13.7657 5.41406 13.4258C4.7373 13.086 4.5 12.7286 4.5 12.5118C4.5 12.295 4.7373 11.9376 5.41406 11.5977C6.09082 11.2579 7.10742 11.0118 8.25 11.0118ZM19.5 11.6446V12.5118C19.5 12.7286 19.2627 13.086 18.5859 13.4258C17.9092 13.7657 16.8926 14.0118 15.75 14.0118C14.8975 14.0118 14.127 13.8712 13.5 13.6602V12.5118C13.5 12.4151 13.4678 12.3214 13.4531 12.2305C14.1504 12.4122 14.9238 12.5118 15.75 12.5118C17.0947 12.5118 18.3135 12.2598 19.2656 11.7852C19.3477 11.7442 19.4209 11.6885 19.5 11.6446ZM4.5 14.6446C4.5791 14.6885 4.65234 14.7442 4.73438 14.7852C5.68652 15.2598 6.90527 15.5118 8.25 15.5118C9.59473 15.5118 10.8135 15.2598 11.7656 14.7852C11.8477 14.7442 11.9209 14.6885 12 14.6446V15.5118C12 15.7286 11.7627 16.086 11.0859 16.4258C10.4092 16.7657 9.39258 17.0118 8.25 17.0118C7.10742 17.0118 6.09082 16.7657 5.41406 16.4258C4.7373 16.086 4.5 15.7286 4.5 15.5118V14.6446ZM19.5 14.6446V15.5118C19.5 15.7286 19.2627 16.086 18.5859 16.4258C17.9092 16.7657 16.8926 17.0118 15.75 17.0118C14.8975 17.0118 14.127 16.8917 13.5 16.6837V15.2305C14.1885 15.4122 14.9385 15.5118 15.75 15.5118C17.0947 15.5118 18.3135 15.2598 19.2656 14.7852C19.3477 14.7442 19.4209 14.6885 19.5 14.6446ZM4.5 17.6446C4.5791 17.6885 4.65234 17.7442 4.73438 17.7852C5.68652 18.2598 6.90527 18.5118 8.25 18.5118C9.59473 18.5118 10.8135 18.2598 11.7656 17.7852C11.8477 17.7442 11.9209 17.6885 12 17.6446V18.5118C12 18.7286 11.7627 19.086 11.0859 19.4258C10.4092 19.7657 9.39258 20.0118 8.25 20.0118C7.10742 20.0118 6.09082 19.7657 5.41406 19.4258C4.7373 19.086 4.5 18.7286 4.5 18.5118V17.6446Z" fill="#1A3835"/>
</g>
</svg>
