<svg width="24" height="25" viewBox="0 0 24 25" fill="none" xmlns="http://www.w3.org/2000/svg">
<g id="id-card-alt-solid">
<path id="Vector" d="M11.25 4.26178C10.4297 4.26178 9.75 4.94147 9.75 5.76178V6.51178H3V20.0118H21V6.51178H14.25V5.76178C14.25 4.94147 13.5703 4.26178 12.75 4.26178H11.25ZM11.25 5.76178H12.75V7.26178H11.25V5.76178ZM4.5 8.01178H9.75V8.76178H14.25V8.01178H19.5V18.5118H4.5V8.01178ZM12 9.51178C10.3506 9.51178 9 10.8624 9 12.5118C9 13.3497 9.35156 14.1085 9.91113 14.6534C8.90918 15.3301 8.25 16.4727 8.25 17.7618H9.75C9.75 16.5108 10.749 15.5118 12 15.5118C13.251 15.5118 14.25 16.5108 14.25 17.7618H15.75C15.75 16.4727 15.0908 15.3301 14.0889 14.6534C14.6484 14.1085 15 13.3497 15 12.5118C15 10.8624 13.6494 9.51178 12 9.51178ZM12 11.0118C12.8379 11.0118 13.5 11.6739 13.5 12.5118C13.5 13.3497 12.8379 14.0118 12 14.0118C11.1621 14.0118 10.5 13.3497 10.5 12.5118C10.5 11.6739 11.1621 11.0118 12 11.0118Z" fill="#1A3835"/>
</g>
</svg>
