<svg width="161" height="19" viewBox="0 0 161 19" fill="none" xmlns="http://www.w3.org/2000/svg">
<path d="M1.73217 18.4991C1.96146 18.4991 2.16592 18.3547 2.24263 18.1387L7.61869 2.99463C7.6332 2.95377 7.67186 2.92647 7.71522 2.92647C7.75858 2.92647 7.79724 2.95378 7.81174 2.99464L13.1875 18.1387C13.2642 18.3547 13.4687 18.4991 13.698 18.4991H14.888C15.2646 18.4991 15.5263 18.1243 15.3965 17.7707L9.00162 0.354965C8.92333 0.141731 8.7203 0 8.49315 0H6.93699C6.70984 0 6.50681 0.141731 6.42852 0.354965L0.0336706 17.7707C-0.0961444 18.1243 0.165528 18.4991 0.542147 18.4991H1.73217Z" fill="#142E2B"/>
<path d="M33.234 0.54167C33.234 0.242514 32.9915 0 32.6924 0H31.5719C31.2728 0 31.0302 0.242514 31.0302 0.54167V14.4423C31.0302 14.5078 30.9771 14.5609 30.9116 14.5609C30.8727 14.5609 30.8363 14.5419 30.8142 14.51L20.8944 0.232601C20.7932 0.086892 20.627 0 20.4496 0H19.1064C18.8072 0 18.5647 0.242514 18.5647 0.54167V17.9574C18.5647 18.2566 18.8072 18.4991 19.1064 18.4991H20.2632C20.5623 18.4991 20.8048 18.2566 20.8048 17.9574V4.09311C20.8048 4.0276 20.8579 3.97449 20.9234 3.97449C20.9623 3.97449 20.9987 3.99354 21.0209 4.02548L30.9047 18.2663C31.0059 18.4121 31.1721 18.4991 31.3497 18.4991H32.6924C32.9915 18.4991 33.234 18.2566 33.234 17.9574V0.54167Z" fill="#142E2B"/>
<path d="M37.4463 1.9871C37.1472 1.9871 36.9046 1.74458 36.9046 1.44543V0.54167C36.9046 0.242514 37.1472 0 37.4463 0H50.2376C50.5367 0 50.7792 0.242514 50.7792 0.54167V1.44543C50.7792 1.74458 50.5367 1.9871 50.2376 1.9871H45.5037C45.2045 1.9871 44.962 2.22961 44.962 2.52877V17.9574C44.962 18.2566 44.7195 18.4991 44.4203 18.4991H43.2636C42.9644 18.4991 42.7219 18.2566 42.7219 17.9574V2.52877C42.7219 2.22961 42.4794 1.9871 42.1802 1.9871H37.4463Z" fill="#142E2B"/>
<path d="M92.3829 17.9574C92.3829 18.2566 92.6254 18.4991 92.9246 18.4991H103.683C103.982 18.4991 104.225 18.2566 104.225 17.9574V15.8161C104.225 15.5169 103.982 15.2744 103.683 15.2744H96.8357C96.5365 15.2744 96.294 15.0319 96.294 14.7327V0.54167C96.294 0.242514 96.0515 0 95.7523 0H92.9246C92.6254 0 92.3829 0.242514 92.3829 0.54167V17.9574Z" fill="#142E2B"/>
<path d="M140.785 0C141.084 0 141.327 0.242514 141.327 0.54167V17.9574C141.327 18.2566 141.084 18.4991 140.785 18.4991H138.232C138.055 18.4991 137.888 18.4118 137.787 18.2654L129.927 6.89413C129.91 6.87008 129.883 6.85573 129.854 6.85573C129.804 6.85573 129.765 6.89559 129.765 6.94476V17.9574C129.765 18.2566 129.522 18.4991 129.223 18.4991H126.395C126.096 18.4991 125.853 18.2566 125.853 17.9574V0.54167C125.853 0.242514 126.096 0 126.395 0H129.001C129.179 0 129.346 0.0879615 129.447 0.23515L137.239 11.5879C137.259 11.6169 137.292 11.6342 137.327 11.6342C137.386 11.6342 137.433 11.5865 137.433 11.5277V0.541671C137.433 0.242514 137.676 0 137.975 0H140.785Z" fill="#142E2B"/>
<path d="M144.662 0C144.248 0 143.987 0.446757 144.191 0.807844L150.413 11.8356C150.458 11.9168 150.483 12.0085 150.483 12.1018V17.9574C150.483 18.2566 150.725 18.4991 151.024 18.4991H153.825C154.124 18.4991 154.367 18.2566 154.367 17.9574V12.1018C154.367 12.0085 154.391 11.9168 154.436 11.8356L160.658 0.807835C160.862 0.446748 160.601 0 160.186 0H157.059C156.859 0 156.674 0.110895 156.581 0.288205L152.557 7.88701C152.531 7.93613 152.48 7.96685 152.425 7.96685C152.369 7.96685 152.318 7.93613 152.292 7.88701L148.269 0.288205C148.175 0.110895 147.99 0 147.79 0H144.662Z" fill="#142E2B"/>
<path fill-rule="evenodd" clip-rule="evenodd" d="M88.3867 14.2717C89.1514 12.8937 89.5338 11.2224 89.5338 9.2577C89.5338 7.29332 89.1514 5.62199 88.3867 4.2437C87.628 2.8657 86.5922 1.81612 85.2795 1.09466C83.9726 0.367397 82.5034 0.00391255 80.8714 0.00391255C79.2275 0.00391255 77.752 0.367397 76.4453 1.09466C75.1387 1.81612 74.1058 2.8657 73.3471 4.2437C72.5884 5.62199 72.2089 7.29332 72.2089 9.2577C72.2089 11.2166 72.5884 12.885 73.3471 14.263C74.1058 15.6413 75.1387 16.6938 76.4453 17.421C77.752 18.1483 79.2275 18.5118 80.8714 18.5118C82.5034 18.5118 83.9726 18.1512 85.2795 17.4297C86.5922 16.7025 87.628 15.65 88.3867 14.2717ZM84.9813 6.03823C85.3727 6.91215 85.5686 7.98522 85.5686 9.2577C85.5686 10.5305 85.3727 11.6035 84.9813 12.4775C84.5958 13.3511 84.0508 14.0137 83.3463 14.4653C82.6418 14.9169 81.8167 15.1427 80.8714 15.1427C79.926 15.1427 79.101 14.9169 78.3964 14.4653C77.6919 14.0137 77.1439 13.3511 76.7525 12.4775C76.3671 11.6035 76.1742 10.5305 76.1742 9.2577C76.1742 7.98522 76.3671 6.91215 76.7525 6.03823C77.1439 5.16459 77.6919 4.50196 78.3964 4.05036C79.101 3.59876 79.926 3.37296 80.8714 3.37296C81.8167 3.37296 82.6418 3.59876 83.3463 4.05036C84.0508 4.50196 84.5958 5.16459 84.9813 6.03823Z" fill="#142E2B"/>
<path fill-rule="evenodd" clip-rule="evenodd" d="M123.523 9.2577C123.523 11.2224 123.141 12.8937 122.376 14.2717C121.618 15.65 120.582 16.7025 119.269 17.4297C117.962 18.1512 116.493 18.5118 114.861 18.5118C113.217 18.5118 111.742 18.1483 110.435 17.421C109.128 16.6938 108.095 15.6413 107.337 14.263C106.578 12.885 106.199 11.2166 106.199 9.2577C106.199 7.29332 106.578 5.62199 107.337 4.2437C108.095 2.8657 109.128 1.81612 110.435 1.09466C111.742 0.367397 113.217 0.00391255 114.861 0.00391255C116.493 0.00391255 117.962 0.367397 119.269 1.09466C120.582 1.81612 121.618 2.8657 122.376 4.2437C123.141 5.62199 123.523 7.29332 123.523 9.2577ZM119.558 9.2577C119.558 7.98522 119.362 6.91215 118.971 6.03823C118.585 5.16459 118.04 4.50196 117.336 4.05036C116.631 3.59876 115.806 3.37296 114.861 3.37296C113.916 3.37296 113.091 3.59876 112.386 4.05036C111.681 4.50196 111.134 5.16459 110.742 6.03823C110.357 6.91215 110.164 7.98522 110.164 9.2577C110.164 10.5305 110.357 11.6035 110.742 12.4775C111.134 13.3511 111.681 14.0137 112.386 14.4653C113.091 14.9169 113.916 15.1427 114.861 15.1427C115.806 15.1427 116.631 14.9169 117.336 14.4653C118.04 14.0137 118.585 13.3511 118.971 12.4775C119.362 11.6035 119.558 10.5305 119.558 9.2577Z" fill="#142E2B"/>
<path d="M68.9904 6.55736C69.3147 6.55736 69.5679 6.28123 69.5092 5.97061C69.3566 5.16297 69.0977 4.43192 68.7324 3.7776C68.2869 2.96831 67.7088 2.28511 66.9983 1.728C66.2876 1.16509 65.4717 0.736969 64.5502 0.443631C63.6349 0.150582 62.6414 0.00391255 61.5695 0.00391255C59.9435 0.00391255 58.4802 0.367397 57.1795 1.09466C55.8788 1.81612 54.8489 2.8657 54.0902 4.2437C53.3315 5.62199 52.952 7.29332 52.952 9.2577C52.952 11.2166 53.3256 12.885 54.0721 14.263C54.8248 15.6413 55.8487 16.6938 57.1435 17.421C58.4442 18.1483 59.9194 18.5118 61.5695 18.5118C62.7557 18.5118 63.8186 18.3387 64.7579 17.9926C65.7036 17.641 66.5165 17.166 67.1969 16.5677C67.8835 15.9636 68.4285 15.2804 68.8319 14.5181C69.1442 13.9324 69.3671 13.3295 69.5008 12.7097C69.5674 12.401 69.3156 12.1243 68.9917 12.1229L66.097 12.1099C65.8344 12.1088 65.6128 12.2925 65.539 12.5379C65.4458 12.8479 65.318 13.1327 65.1556 13.3923C64.9267 13.7676 64.6377 14.0871 64.2883 14.3511C63.9391 14.6091 63.5388 14.8056 63.087 14.9404C62.6414 15.0752 62.1565 15.1427 61.6326 15.1427C60.6992 15.1427 59.8774 14.9198 59.1666 14.474C58.4561 14.0285 57.9022 13.3688 57.5049 12.4949C57.1131 11.6212 56.9176 10.5421 56.9176 9.2577C56.9176 8.0087 57.1131 6.94723 57.5049 6.07359C57.8963 5.19386 58.4472 4.52544 59.1577 4.06804C59.8682 3.60456 60.7022 3.37296 61.6597 3.37296C62.1898 3.37296 62.6807 3.44629 63.1322 3.59296C63.59 3.73934 63.9933 3.95065 64.3424 4.22631C64.6919 4.50196 64.9779 4.83617 65.2005 5.22893C65.354 5.49548 65.4718 5.78825 65.5538 6.10744C65.6193 6.36251 65.8439 6.55736 66.1139 6.55736H68.9904Z" fill="#142E2B"/>
</svg>
