<svg width="24" height="25" viewBox="0 0 24 25" fill="none" xmlns="http://www.w3.org/2000/svg">
<g id="clipboard-list-solid">
<path id="Vector" d="M12 2.01178C11.055 2.01178 10.3876 2.67928 10.0576 3.51178H3.75V22.2618H20.25V3.51178H13.9424C13.6124 2.67928 12.945 2.01178 12 2.01178ZM12 3.51178C12.4125 3.51178 12.75 3.84928 12.75 4.26178V5.01178H15V6.51178H9V5.01178H11.25V4.26178C11.25 3.84928 11.5875 3.51178 12 3.51178ZM5.25 5.01178H7.5V8.01178H16.5V5.01178H18.75V20.7618H5.25V5.01178ZM6.75 10.2618V11.7618H8.25V10.2618H6.75ZM9.75 10.2618V11.7618H17.25V10.2618H9.75ZM6.75 13.2618V14.7618H8.25V13.2618H6.75ZM9.75 13.2618V14.7618H17.25V13.2618H9.75ZM6.75 16.2618V17.7618H8.25V16.2618H6.75ZM9.75 16.2618V17.7618H17.25V16.2618H9.75Z" fill="#1A3835"/>
</g>
</svg>
