<svg width="79" height="22" viewBox="0 0 79 22" fill="none" xmlns="http://www.w3.org/2000/svg">
<path d="M12.89 -1.43051e-06H17V21H12.89V12.3H5.09V21H0.95V-1.43051e-06H5.09V8.34H12.89V-1.43051e-06ZM33.5012 19.14C31.9612 20.66 30.0812 21.42 27.8612 21.42C25.6412 21.42 23.7612 20.66 22.2212 19.14C20.7012 17.6 19.9412 15.72 19.9412 13.5C19.9412 11.28 20.7012 9.41 22.2212 7.89C23.7612 6.35 25.6412 5.58 27.8612 5.58C30.0812 5.58 31.9612 6.35 33.5012 7.89C35.0412 9.41 35.8112 11.28 35.8112 13.5C35.8112 15.72 35.0412 17.6 33.5012 19.14ZM24.9512 16.47C25.7312 17.25 26.7012 17.64 27.8612 17.64C29.0212 17.64 29.9912 17.25 30.7712 16.47C31.5512 15.69 31.9412 14.7 31.9412 13.5C31.9412 12.3 31.5512 11.31 30.7712 10.53C29.9912 9.75 29.0212 9.36 27.8612 9.36C26.7012 9.36 25.7312 9.75 24.9512 10.53C24.1912 11.31 23.8112 12.3 23.8112 13.5C23.8112 14.7 24.1912 15.69 24.9512 16.47ZM55.1237 5.58C56.8437 5.58 58.2137 6.14 59.2337 7.26C60.2737 8.38 60.7937 9.88 60.7937 11.76V21H56.9237V12.03C56.9237 11.13 56.7037 10.43 56.2637 9.93C55.8237 9.43 55.2037 9.18 54.4037 9.18C53.5237 9.18 52.8337 9.47 52.3337 10.05C51.8537 10.63 51.6137 11.47 51.6137 12.57V21H47.7437V12.03C47.7437 11.13 47.5237 10.43 47.0837 9.93C46.6437 9.43 46.0237 9.18 45.2237 9.18C44.3637 9.18 43.6737 9.47 43.1537 10.05C42.6537 10.63 42.4037 11.47 42.4037 12.57V21H38.5337V6H42.4037V7.59C43.3037 6.25 44.6937 5.58 46.5737 5.58C48.4137 5.58 49.7737 6.3 50.6537 7.74C51.6537 6.3 53.1437 5.58 55.1237 5.58ZM67.3505 15.09C67.8705 16.97 69.2805 17.91 71.5805 17.91C73.0605 17.91 74.1805 17.41 74.9405 16.41L78.0605 18.21C76.5805 20.35 74.4005 21.42 71.5205 21.42C69.0405 21.42 67.0505 20.67 65.5505 19.17C64.0505 17.67 63.3005 15.78 63.3005 13.5C63.3005 11.24 64.0405 9.36 65.5205 7.86C67.0005 6.34 68.9005 5.58 71.2205 5.58C73.4205 5.58 75.2305 6.34 76.6505 7.86C78.0905 9.38 78.8105 11.26 78.8105 13.5C78.8105 14 78.7605 14.53 78.6605 15.09H67.3505ZM67.2905 12.09H74.9405C74.7205 11.07 74.2605 10.31 73.5605 9.81C72.8805 9.31 72.1005 9.06 71.2205 9.06C70.1805 9.06 69.3205 9.33 68.6405 9.87C67.9605 10.39 67.5105 11.13 67.2905 12.09Z" fill="#0C221F"/>
</svg>
