<svg width="42" height="42" viewBox="0 0 42 42" fill="none" xmlns="http://www.w3.org/2000/svg">
<circle cx="21" cy="21" r="21" fill="#E9F3F2"/>
<path d="M16.125 13.5C14.6836 13.5 13.5 14.6836 13.5 16.125V18.375C13.5 19.8164 14.6836 21 16.125 21C17.5664 21 18.75 19.8164 18.75 18.375V16.125C18.75 14.6836 17.5664 13.5 16.125 13.5ZM24.5625 13.5L15.5625 28.5H17.4375L26.4375 13.5H24.5625ZM16.125 15C16.7549 15 17.25 15.4951 17.25 16.125V18.375C17.25 19.0049 16.7549 19.5 16.125 19.5C15.4951 19.5 15 19.0049 15 18.375V16.125C15 15.4951 15.4951 15 16.125 15ZM25.875 21C24.4336 21 23.25 22.1836 23.25 23.625V25.875C23.25 27.3164 24.4336 28.5 25.875 28.5C27.3164 28.5 28.5 27.3164 28.5 25.875V23.625C28.5 22.1836 27.3164 21 25.875 21ZM25.875 22.5C26.5049 22.5 27 22.9951 27 23.625V25.875C27 26.5049 26.5049 27 25.875 27C25.2451 27 24.75 26.5049 24.75 25.875V23.625C24.75 22.9951 25.2451 22.5 25.875 22.5Z" fill="#1A3835"/>
</svg>
