<svg width="42" height="42" viewBox="0 0 42 42" fill="none" xmlns="http://www.w3.org/2000/svg">
<circle cx="21" cy="21" r="21" fill="#E9F3F2"/>
<path d="M21 11.25C15.624 11.25 11.25 15.624 11.25 21C11.25 26.376 15.624 30.75 21 30.75C26.376 30.75 30.75 26.376 30.75 21C30.75 15.624 26.376 11.25 21 11.25ZM20.1562 12.7969C20.1885 12.7939 20.2178 12.7998 20.25 12.7969V21.3047L20.4609 21.5391L26.2969 27.3516C24.8672 28.5469 23.0156 29.25 21 29.25C16.4355 29.25 12.75 25.5645 12.75 21C12.75 16.7197 15.9902 13.2188 20.1562 12.7969ZM21.75 12.7969C25.7139 13.1543 28.8457 16.2861 29.2031 20.25H21.75V12.7969ZM22.8281 21.75H29.2031C29.0479 23.4697 28.3975 25.0459 27.3516 26.2969L22.8281 21.75Z" fill="#1A3835"/>
</svg>
