<svg width="330" height="170" viewBox="0 0 330 170" fill="none" xmlns="http://www.w3.org/2000/svg">
<rect width="330" height="170" rx="6" fill="#E9F3F2"/>
<path d="M99.7828 67L98.7568 64.174H93.0868L92.0608 67H90.2788L94.9768 54.4H96.8668L101.565 67H99.7828ZM93.6628 62.608H98.1808L95.9128 56.398L93.6628 62.608ZM106.908 67.234C105.552 67.234 104.424 66.784 103.524 65.884C102.624 64.972 102.174 63.844 102.174 62.5C102.174 61.156 102.624 60.034 103.524 59.134C104.424 58.222 105.552 57.766 106.908 57.766C107.796 57.766 108.594 57.982 109.302 58.414C110.01 58.834 110.538 59.404 110.886 60.124L109.572 60.88C109.344 60.4 108.99 60.016 108.51 59.728C108.042 59.44 107.508 59.296 106.908 59.296C106.008 59.296 105.252 59.602 104.64 60.214C104.04 60.826 103.74 61.588 103.74 62.5C103.74 63.4 104.04 64.156 104.64 64.768C105.252 65.38 106.008 65.686 106.908 65.686C107.508 65.686 108.048 65.548 108.528 65.272C109.008 64.984 109.374 64.6 109.626 64.12L110.958 64.894C110.574 65.602 110.022 66.172 109.302 66.604C108.582 67.024 107.784 67.234 106.908 67.234ZM117.4 59.512H115.006V64.39C115.006 64.834 115.09 65.152 115.258 65.344C115.438 65.524 115.708 65.62 116.068 65.632C116.428 65.632 116.872 65.62 117.4 65.596V67C116.032 67.18 115.03 67.072 114.394 66.676C113.758 66.268 113.44 65.506 113.44 64.39V59.512H111.658V58H113.44V55.948L115.006 55.48V58H117.4V59.512ZM125.517 58H127.083V67H125.517V65.704C124.881 66.724 123.909 67.234 122.601 67.234C121.545 67.234 120.699 66.904 120.063 66.244C119.427 65.572 119.109 64.666 119.109 63.526V58H120.675V63.436C120.675 64.168 120.873 64.738 121.269 65.146C121.665 65.542 122.211 65.74 122.907 65.74C123.687 65.74 124.317 65.5 124.797 65.02C125.277 64.528 125.517 63.778 125.517 62.77V58ZM136.919 58H138.485V67H136.919V65.452C136.139 66.64 135.005 67.234 133.517 67.234C132.257 67.234 131.183 66.778 130.295 65.866C129.407 64.942 128.963 63.82 128.963 62.5C128.963 61.18 129.407 60.064 130.295 59.152C131.183 58.228 132.257 57.766 133.517 57.766C135.005 57.766 136.139 58.36 136.919 59.548V58ZM133.715 65.722C134.627 65.722 135.389 65.416 136.001 64.804C136.613 64.18 136.919 63.412 136.919 62.5C136.919 61.588 136.613 60.826 136.001 60.214C135.389 59.59 134.627 59.278 133.715 59.278C132.815 59.278 132.059 59.59 131.447 60.214C130.835 60.826 130.529 61.588 130.529 62.5C130.529 63.412 130.835 64.18 131.447 64.804C132.059 65.416 132.815 65.722 133.715 65.722ZM140.858 67V53.86H142.424V67H140.858ZM156.783 58H158.331V66.622C158.331 67.954 157.881 68.986 156.981 69.718C156.081 70.462 155.001 70.834 153.741 70.834C152.733 70.834 151.863 70.642 151.131 70.258C150.399 69.886 149.847 69.346 149.475 68.638L150.843 67.864C151.335 68.872 152.313 69.376 153.777 69.376C154.713 69.376 155.445 69.13 155.973 68.638C156.513 68.146 156.783 67.474 156.783 66.622V65.344C155.991 66.544 154.863 67.144 153.399 67.144C152.115 67.144 151.029 66.688 150.141 65.776C149.253 64.864 148.809 63.754 148.809 62.446C148.809 61.138 149.253 60.034 150.141 59.134C151.029 58.222 152.115 57.766 153.399 57.766C154.875 57.766 156.003 58.36 156.783 59.548V58ZM151.293 64.732C151.905 65.344 152.667 65.65 153.579 65.65C154.491 65.65 155.253 65.344 155.865 64.732C156.477 64.12 156.783 63.358 156.783 62.446C156.783 61.546 156.477 60.79 155.865 60.178C155.253 59.566 154.491 59.26 153.579 59.26C152.667 59.26 151.905 59.566 151.293 60.178C150.681 60.79 150.375 61.546 150.375 62.446C150.375 63.358 150.681 64.12 151.293 64.732ZM162.27 59.512C162.786 58.396 163.722 57.838 165.078 57.838V59.476C164.31 59.44 163.65 59.644 163.098 60.088C162.546 60.532 162.27 61.246 162.27 62.23V67H160.704V58H162.27V59.512ZM173.714 65.866C172.79 66.778 171.668 67.234 170.348 67.234C169.028 67.234 167.906 66.778 166.982 65.866C166.07 64.954 165.614 63.832 165.614 62.5C165.614 61.168 166.07 60.046 166.982 59.134C167.906 58.222 169.028 57.766 170.348 57.766C171.668 57.766 172.79 58.222 173.714 59.134C174.638 60.046 175.1 61.168 175.1 62.5C175.1 63.832 174.638 64.954 173.714 65.866ZM170.348 65.704C171.248 65.704 172.004 65.398 172.616 64.786C173.228 64.174 173.534 63.412 173.534 62.5C173.534 61.588 173.228 60.826 172.616 60.214C172.004 59.602 171.248 59.296 170.348 59.296C169.46 59.296 168.71 59.602 168.098 60.214C167.486 60.826 167.18 61.588 167.18 62.5C167.18 63.412 167.486 64.174 168.098 64.786C168.71 65.398 169.46 65.704 170.348 65.704ZM178.102 60.43C178.102 60.778 178.276 61.06 178.624 61.276C178.972 61.48 179.392 61.648 179.884 61.78C180.376 61.9 180.868 62.044 181.36 62.212C181.852 62.368 182.272 62.644 182.62 63.04C182.968 63.424 183.142 63.922 183.142 64.534C183.142 65.35 182.824 66.004 182.188 66.496C181.564 66.988 180.76 67.234 179.776 67.234C178.9 67.234 178.15 67.042 177.526 66.658C176.902 66.274 176.458 65.764 176.194 65.128L177.544 64.354C177.688 64.786 177.958 65.128 178.354 65.38C178.75 65.632 179.224 65.758 179.776 65.758C180.292 65.758 180.718 65.662 181.054 65.47C181.39 65.266 181.558 64.954 181.558 64.534C181.558 64.186 181.384 63.91 181.036 63.706C180.688 63.49 180.268 63.322 179.776 63.202C179.284 63.07 178.792 62.92 178.3 62.752C177.808 62.584 177.388 62.308 177.04 61.924C176.692 61.54 176.518 61.048 176.518 60.448C176.518 59.668 176.818 59.026 177.418 58.522C178.03 58.018 178.792 57.766 179.704 57.766C180.436 57.766 181.084 57.934 181.648 58.27C182.224 58.594 182.656 59.05 182.944 59.638L181.63 60.376C181.306 59.608 180.664 59.224 179.704 59.224C179.26 59.224 178.882 59.332 178.57 59.548C178.258 59.752 178.102 60.046 178.102 60.43ZM185.784 60.43C185.784 60.778 185.958 61.06 186.306 61.276C186.654 61.48 187.074 61.648 187.566 61.78C188.058 61.9 188.55 62.044 189.042 62.212C189.534 62.368 189.954 62.644 190.302 63.04C190.65 63.424 190.824 63.922 190.824 64.534C190.824 65.35 190.506 66.004 189.87 66.496C189.246 66.988 188.442 67.234 187.458 67.234C186.582 67.234 185.832 67.042 185.208 66.658C184.584 66.274 184.14 65.764 183.876 65.128L185.226 64.354C185.37 64.786 185.64 65.128 186.036 65.38C186.432 65.632 186.906 65.758 187.458 65.758C187.974 65.758 188.4 65.662 188.736 65.47C189.072 65.266 189.24 64.954 189.24 64.534C189.24 64.186 189.066 63.91 188.718 63.706C188.37 63.49 187.95 63.322 187.458 63.202C186.966 63.07 186.474 62.92 185.982 62.752C185.49 62.584 185.07 62.308 184.722 61.924C184.374 61.54 184.2 61.048 184.2 60.448C184.2 59.668 184.5 59.026 185.1 58.522C185.712 58.018 186.474 57.766 187.386 57.766C188.118 57.766 188.766 57.934 189.33 58.27C189.906 58.594 190.338 59.05 190.626 59.638L189.312 60.376C188.988 59.608 188.346 59.224 187.386 59.224C186.942 59.224 186.564 59.332 186.252 59.548C185.94 59.752 185.784 60.046 185.784 60.43ZM202.146 57.766C203.406 57.766 204.48 58.228 205.368 59.152C206.256 60.064 206.7 61.18 206.7 62.5C206.7 63.82 206.256 64.942 205.368 65.866C204.48 66.778 203.406 67.234 202.146 67.234C200.658 67.234 199.524 66.64 198.744 65.452V70.6H197.178V58H198.744V59.548C199.524 58.36 200.658 57.766 202.146 57.766ZM201.948 65.722C202.848 65.722 203.604 65.416 204.216 64.804C204.828 64.18 205.134 63.412 205.134 62.5C205.134 61.588 204.828 60.826 204.216 60.214C203.604 59.59 202.848 59.278 201.948 59.278C201.036 59.278 200.274 59.59 199.662 60.214C199.05 60.826 198.744 61.588 198.744 62.5C198.744 63.412 199.05 64.18 199.662 64.804C200.274 65.416 201.036 65.722 201.948 65.722ZM210.135 59.512C210.651 58.396 211.587 57.838 212.943 57.838V59.476C212.175 59.44 211.515 59.644 210.963 60.088C210.411 60.532 210.135 61.246 210.135 62.23V67H208.569V58H210.135V59.512ZM221.579 65.866C220.655 66.778 219.533 67.234 218.213 67.234C216.893 67.234 215.771 66.778 214.847 65.866C213.935 64.954 213.479 63.832 213.479 62.5C213.479 61.168 213.935 60.046 214.847 59.134C215.771 58.222 216.893 57.766 218.213 57.766C219.533 57.766 220.655 58.222 221.579 59.134C222.503 60.046 222.965 61.168 222.965 62.5C222.965 63.832 222.503 64.954 221.579 65.866ZM218.213 65.704C219.113 65.704 219.869 65.398 220.481 64.786C221.093 64.174 221.399 63.412 221.399 62.5C221.399 61.588 221.093 60.826 220.481 60.214C219.869 59.602 219.113 59.296 218.213 59.296C217.325 59.296 216.575 59.602 215.963 60.214C215.351 60.826 215.045 61.588 215.045 62.5C215.045 63.412 215.351 64.174 215.963 64.786C216.575 65.398 217.325 65.704 218.213 65.704ZM229.103 55.678C227.519 55.546 226.727 56.23 226.727 57.73V58H229.103V59.512H226.727V67H225.161V59.512H223.721V58H225.161V57.73C225.161 56.518 225.497 55.6 226.169 54.976C226.853 54.352 227.831 54.082 229.103 54.166V55.678ZM231.087 56.362C230.787 56.362 230.535 56.26 230.331 56.056C230.127 55.852 230.025 55.606 230.025 55.318C230.025 55.03 230.127 54.784 230.331 54.58C230.535 54.364 230.787 54.256 231.087 54.256C231.375 54.256 231.621 54.364 231.825 54.58C232.029 54.784 232.131 55.03 232.131 55.318C232.131 55.606 232.029 55.852 231.825 56.056C231.621 56.26 231.375 56.362 231.087 56.362ZM230.295 67V58H231.861V67H230.295ZM239.147 59.512H236.753V64.39C236.753 64.834 236.837 65.152 237.005 65.344C237.185 65.524 237.455 65.62 237.814 65.632C238.174 65.632 238.619 65.62 239.147 65.596V67C237.779 67.18 236.777 67.072 236.141 66.676C235.505 66.268 235.187 65.506 235.187 64.39V59.512H233.405V58H235.187V55.948L236.753 55.48V58H239.147V59.512Z" fill="#232F2D"/>
<path d="M61.4848 105.44V102.32H72.5848V105.44H61.4848ZM75.6077 113V110.3L82.9277 102.83C84.7077 101.05 85.5977 99.51 85.5977 98.21C85.5977 97.19 85.2877 96.4 84.6677 95.84C84.0677 95.26 83.2977 94.97 82.3577 94.97C80.5977 94.97 79.2977 95.84 78.4577 97.58L75.5477 95.87C76.2077 94.47 77.1377 93.41 78.3377 92.69C79.5377 91.97 80.8677 91.61 82.3277 91.61C84.1677 91.61 85.7477 92.19 87.0677 93.35C88.3877 94.51 89.0477 96.09 89.0477 98.09C89.0477 100.23 87.8577 102.51 85.4777 104.93L80.7377 109.67H89.4377V113H75.6077ZM103.1 102.08C105.16 103.22 106.19 104.92 106.19 107.18C106.19 109.1 105.52 110.62 104.18 111.74C102.84 112.84 101.06 113.39 98.8402 113.39C96.6202 113.39 94.8302 112.84 93.4702 111.74C92.1302 110.62 91.4602 109.1 91.4602 107.18C91.4602 106.1 91.7302 105.12 92.2702 104.24C92.8102 103.34 93.5702 102.62 94.5502 102.08C92.9702 101.04 92.1802 99.56 92.1802 97.64C92.1802 95.72 92.8202 94.24 94.1002 93.2C95.3802 92.14 96.9602 91.61 98.8402 91.61C100.7 91.61 102.27 92.14 103.55 93.2C104.85 94.24 105.5 95.72 105.5 97.64C105.5 99.56 104.7 101.04 103.1 102.08ZM98.8402 94.88C97.9002 94.88 97.1302 95.13 96.5302 95.63C95.9302 96.13 95.6302 96.85 95.6302 97.79C95.6302 98.69 95.9302 99.4 96.5302 99.92C97.1502 100.44 97.9202 100.7 98.8402 100.7C99.7402 100.7 100.5 100.44 101.12 99.92C101.74 99.4 102.05 98.69 102.05 97.79C102.05 96.85 101.74 96.13 101.12 95.63C100.52 95.13 99.7602 94.88 98.8402 94.88ZM98.8402 110.12C100 110.12 100.94 109.84 101.66 109.28C102.38 108.7 102.74 107.89 102.74 106.85C102.74 105.81 102.38 105.01 101.66 104.45C100.94 103.87 100 103.58 98.8402 103.58C97.6602 103.58 96.7102 103.87 95.9902 104.45C95.2702 105.01 94.9102 105.81 94.9102 106.85C94.9102 107.89 95.2702 108.7 95.9902 109.28C96.7102 109.84 97.6602 110.12 98.8402 110.12ZM124.41 106.01V109.22H122.01V113H118.53V109.22H108.21V106.01L115.44 92H119.19L111.96 106.01H118.53V100.55H122.01V106.01H124.41ZM131.312 109.4L129.212 117.2H126.512L127.712 109.4H131.312ZM147.463 110.42C146.023 112.4 144.003 113.39 141.403 113.39C138.803 113.39 136.773 112.4 135.313 110.42C133.873 108.44 133.153 105.8 133.153 102.5C133.153 99.2 133.873 96.56 135.313 94.58C136.773 92.6 138.803 91.61 141.403 91.61C144.003 91.61 146.023 92.6 147.463 94.58C148.923 96.56 149.653 99.2 149.653 102.5C149.653 105.8 148.923 108.44 147.463 110.42ZM141.403 110.03C142.963 110.03 144.153 109.38 144.973 108.08C145.793 106.78 146.203 104.92 146.203 102.5C146.203 100.08 145.793 98.22 144.973 96.92C144.153 95.62 142.963 94.97 141.403 94.97C139.863 94.97 138.673 95.62 137.833 96.92C137.013 98.22 136.603 100.08 136.603 102.5C136.603 104.92 137.013 106.78 137.833 108.08C138.673 109.38 139.863 110.03 141.403 110.03ZM163.54 102.08C165.6 103.22 166.63 104.92 166.63 107.18C166.63 109.1 165.96 110.62 164.62 111.74C163.28 112.84 161.5 113.39 159.28 113.39C157.06 113.39 155.27 112.84 153.91 111.74C152.57 110.62 151.9 109.1 151.9 107.18C151.9 106.1 152.17 105.12 152.71 104.24C153.25 103.34 154.01 102.62 154.99 102.08C153.41 101.04 152.62 99.56 152.62 97.64C152.62 95.72 153.26 94.24 154.54 93.2C155.82 92.14 157.4 91.61 159.28 91.61C161.14 91.61 162.71 92.14 163.99 93.2C165.29 94.24 165.94 95.72 165.94 97.64C165.94 99.56 165.14 101.04 163.54 102.08ZM159.28 94.88C158.34 94.88 157.57 95.13 156.97 95.63C156.37 96.13 156.07 96.85 156.07 97.79C156.07 98.69 156.37 99.4 156.97 99.92C157.59 100.44 158.36 100.7 159.28 100.7C160.18 100.7 160.94 100.44 161.56 99.92C162.18 99.4 162.49 98.69 162.49 97.79C162.49 96.85 162.18 96.13 161.56 95.63C160.96 95.13 160.2 94.88 159.28 94.88ZM159.28 110.12C160.44 110.12 161.38 109.84 162.1 109.28C162.82 108.7 163.18 107.89 163.18 106.85C163.18 105.81 162.82 105.01 162.1 104.45C161.38 103.87 160.44 103.58 159.28 103.58C158.1 103.58 157.15 103.87 156.43 104.45C155.71 105.01 155.35 105.81 155.35 106.85C155.35 107.89 155.71 108.7 156.43 109.28C157.15 109.84 158.1 110.12 159.28 110.12ZM176.149 99.05C178.329 99.05 180.109 99.72 181.489 101.06C182.869 102.38 183.559 104.1 183.559 106.22C183.559 108.34 182.869 110.07 181.489 111.41C180.109 112.73 178.329 113.39 176.149 113.39C173.949 113.39 172.159 112.73 170.779 111.41C169.399 110.07 168.709 108.34 168.709 106.22C168.709 104.62 169.129 103.21 169.969 101.99L176.629 92H180.559L175.759 99.05H176.149ZM176.149 110.12C177.309 110.12 178.259 109.77 178.999 109.07C179.739 108.35 180.109 107.4 180.109 106.22C180.109 105.04 179.739 104.1 178.999 103.4C178.259 102.68 177.309 102.32 176.149 102.32C174.969 102.32 174.009 102.68 173.269 103.4C172.529 104.1 172.159 105.04 172.159 106.22C172.159 107.4 172.529 108.35 173.269 109.07C174.009 109.77 174.969 110.12 176.149 110.12ZM189.151 112.7C188.711 113.14 188.181 113.36 187.561 113.36C186.941 113.36 186.411 113.14 185.971 112.7C185.531 112.26 185.311 111.73 185.311 111.11C185.311 110.49 185.521 109.96 185.941 109.52C186.381 109.08 186.921 108.86 187.561 108.86C188.181 108.86 188.711 109.08 189.151 109.52C189.591 109.96 189.811 110.49 189.811 111.11C189.811 111.73 189.591 112.26 189.151 112.7ZM205.969 110.42C204.529 112.4 202.509 113.39 199.909 113.39C197.309 113.39 195.279 112.4 193.819 110.42C192.379 108.44 191.659 105.8 191.659 102.5C191.659 99.2 192.379 96.56 193.819 94.58C195.279 92.6 197.309 91.61 199.909 91.61C202.509 91.61 204.529 92.6 205.969 94.58C207.429 96.56 208.159 99.2 208.159 102.5C208.159 105.8 207.429 108.44 205.969 110.42ZM199.909 110.03C201.469 110.03 202.659 109.38 203.479 108.08C204.299 106.78 204.709 104.92 204.709 102.5C204.709 100.08 204.299 98.22 203.479 96.92C202.659 95.62 201.469 94.97 199.909 94.97C198.369 94.97 197.179 95.62 196.339 96.92C195.519 98.22 195.109 100.08 195.109 102.5C195.109 104.92 195.519 106.78 196.339 108.08C197.179 109.38 198.369 110.03 199.909 110.03ZM224.865 110.42C223.425 112.4 221.405 113.39 218.805 113.39C216.205 113.39 214.175 112.4 212.715 110.42C211.275 108.44 210.555 105.8 210.555 102.5C210.555 99.2 211.275 96.56 212.715 94.58C214.175 92.6 216.205 91.61 218.805 91.61C221.405 91.61 223.425 92.6 224.865 94.58C226.325 96.56 227.055 99.2 227.055 102.5C227.055 105.8 226.325 108.44 224.865 110.42ZM218.805 110.03C220.365 110.03 221.555 109.38 222.375 108.08C223.195 106.78 223.605 104.92 223.605 102.5C223.605 100.08 223.195 98.22 222.375 96.92C221.555 95.62 220.365 94.97 218.805 94.97C217.265 94.97 216.075 95.62 215.235 96.92C214.415 98.22 214.005 100.08 214.005 102.5C214.005 104.92 214.415 106.78 215.235 108.08C216.075 109.38 217.265 110.03 218.805 110.03ZM246.192 113H242.082L233.802 103.01V113H230.352V92H233.802V101.42L241.782 92H245.892L237.402 102.23L246.192 113ZM268.528 92V113H265.078V98.03L258.688 108.59H258.268L251.878 98V113H248.428V92H252.148L258.478 102.5L264.838 92H268.528Z" fill="#0C221F"/>
</svg>
