<svg width="51" height="17" viewBox="0 0 51 17" fill="none" xmlns="http://www.w3.org/2000/svg">
<path d="M13.618 0.599999L8.338 9.994V16H5.324V9.994L0.066 0.599999H3.498L6.842 7.024L10.186 0.599999H13.618ZM15.1687 11.666C15.55 13.0447 16.584 13.734 18.2707 13.734C19.356 13.734 20.1773 13.3673 20.7347 12.634L23.0227 13.954C21.9373 15.5233 20.3387 16.308 18.2267 16.308C16.408 16.308 14.9487 15.758 13.8487 14.658C12.7487 13.558 12.1987 12.172 12.1987 10.5C12.1987 8.84267 12.7413 7.464 13.8267 6.364C14.912 5.24933 16.3053 4.692 18.0067 4.692C19.62 4.692 20.9473 5.24933 21.9887 6.364C23.0447 7.47867 23.5727 8.85733 23.5727 10.5C23.5727 10.8667 23.536 11.2553 23.4627 11.666H15.1687ZM15.1247 9.466H20.7347C20.5733 8.718 20.236 8.16067 19.7227 7.794C19.224 7.42733 18.652 7.244 18.0067 7.244C17.244 7.244 16.6133 7.442 16.1147 7.838C15.616 8.21933 15.286 8.762 15.1247 9.466ZM33.8279 5H36.6659V16H33.8279V14.702C32.9773 15.7727 31.7819 16.308 30.2419 16.308C28.7753 16.308 27.5139 15.7507 26.4579 14.636C25.4166 13.5067 24.8959 12.128 24.8959 10.5C24.8959 8.872 25.4166 7.50067 26.4579 6.386C27.5139 5.25667 28.7753 4.692 30.2419 4.692C31.7819 4.692 32.9773 5.22733 33.8279 6.298V5ZM28.5919 12.744C29.1639 13.316 29.8899 13.602 30.7699 13.602C31.6499 13.602 32.3759 13.316 32.9479 12.744C33.5346 12.1573 33.8279 11.4093 33.8279 10.5C33.8279 9.59067 33.5346 8.85 32.9479 8.278C32.3759 7.69133 31.6499 7.398 30.7699 7.398C29.8899 7.398 29.1639 7.69133 28.5919 8.278C28.0199 8.85 27.7339 9.59067 27.7339 10.5C27.7339 11.4093 28.0199 12.1573 28.5919 12.744ZM42.0774 6.892C42.3414 6.188 42.7741 5.66 43.3754 5.308C43.9914 4.956 44.6734 4.78 45.4214 4.78V7.948C44.5561 7.84533 43.7787 8.02133 43.0894 8.476C42.4147 8.93067 42.0774 9.686 42.0774 10.742V16H39.2394V5H42.0774V6.892ZM50.0512 7.86C49.6845 8.22667 49.2445 8.41 48.7312 8.41C48.2179 8.41 47.7779 8.22667 47.4112 7.86C47.0445 7.49333 46.8612 7.05333 46.8612 6.54C46.8612 6.02667 47.0445 5.58667 47.4112 5.22C47.7779 4.85333 48.2179 4.67 48.7312 4.67C49.2445 4.67 49.6845 4.85333 50.0512 5.22C50.4179 5.58667 50.6012 6.02667 50.6012 6.54C50.6012 7.05333 50.4179 7.49333 50.0512 7.86ZM50.0512 15.736C49.6845 16.1027 49.2445 16.286 48.7312 16.286C48.2179 16.286 47.7779 16.1027 47.4112 15.736C47.0445 15.3693 46.8612 14.9293 46.8612 14.416C46.8612 13.9027 47.0445 13.4627 47.4112 13.096C47.7779 12.7293 48.2179 12.546 48.7312 12.546C49.2445 12.546 49.6845 12.7293 50.0512 13.096C50.4179 13.4627 50.6012 13.9027 50.6012 14.416C50.6012 14.9293 50.4179 15.3693 50.0512 15.736Z" fill="#0C221F"/>
</svg>
